PathFileType	4	(X/Y/Z)	C:\Users\WrightLab\Desktop\Jo\P1_boxCal29.trc
DataRate	CameraRate	NumFrames	NumMarkers	Units	OrigDataRate	OrigDataStartFrame	OrigNumFrames
100.00	100.00	      57	19	mm	100.00	145	      1153
Frame#	Time	Headset_Front			Headset_Back			Headset_Left			Headset_Right			Left_Shoulder			Right_Shoulder			Sternum			C7			Left Elbow			Right Elbow			Left Wrist			Right Wrist			Left ASIS			Right ASIS			S2			Left Knee			Right Knee			Left Ankle			Right Ankle			
		X1	Y1	Z1	X2	Y2	Z2	X3	Y3	Z3	X4	Y4	Z4	X5	Y5	Z5	X6	Y6	Z6	X7	Y7	Z7	X8	Y8	Z8	X9	Y9	Z9	X10	Y10	Z10	X11	Y11	Z11	X12	Y12	Z12	X13	Y13	Z13	X14	Y14	Z14	X15	Y15	Z15	X16	Y16	Z16	X17	Y17	Z17	X18	Y18	Z18	X19	Y19	Z19	

145	1.440																-84.82977	1309.73022	2402.62305																												-462.75418	520.37189	2268.40283	-155.44733	486.54688	2429.87427							
146	1.450																-84.37318	1310.27271	2405.19214																												-463.92319	520.46051	2269.62573	-155.61552	487.27655	2431.75903							
147	1.460																-84.18219	1310.11169	2407.78223																												-465.49756	521.86603	2270.53687	-155.99995	487.38339	2433.95068							
148	1.470																-83.52257	1310.26074	2409.00977																												-466.32278	521.84271	2271.55786	-156.54817	488.96359	2436.08569							
149	1.480																-83.30280	1310.73486	2411.57129																												-467.32608	522.61786	2272.94067	-155.83760	488.59177	2437.22192							
150	1.490																-82.94141	1311.09851	2413.64771																												-468.03552	522.37762	2274.03735	-155.37433	488.82294	2438.86768							
151	1.500																-83.26030	1311.10291	2416.01807																												-468.23975	522.46747	2276.80151	-155.89537	488.42340	2439.34766							
152	1.510																-82.80145	1311.27673	2417.38916																												-468.11572	521.83759	2280.05103	-154.20007	489.31732	2441.99829							
153	1.520																-82.95502	1311.74927	2419.84741																												-468.46454	521.76312	2280.80249	-154.23959	489.20120	2442.76611							
154	1.530																-82.64815	1311.38196	2421.28442																												-468.96161	521.24426	2282.39111	-154.20892	489.09955	2443.21021							
155	1.540																-82.47486	1310.98743	2422.66895																												-469.51996	520.83429	2283.76416	-154.27805	489.04187	2443.69092							
156	1.550																-82.44279	1311.17212	2423.98511																												-469.93463	520.70984	2286.05811	-154.28783	489.63928	2444.82056							
157	1.560																-82.20403	1311.45129	2425.23999																												-470.42606	519.43103	2289.41187	-154.16255	489.87671	2446.15063							
158	1.570																-81.92155	1311.13477	2426.94702																												-471.05579	518.93909	2292.74585	-153.97717	489.65601	2447.53589							
159	1.580																-81.90358	1310.84766	2428.34399																												-472.75012	520.74921	2293.71680	-153.95836	490.00476	2447.79517							
160	1.590																-81.68652	1310.73755	2428.88135																												-472.71738	518.96289	2298.90161	-153.96327	490.09387	2448.07495							
161	1.600																-81.70615	1310.64392	2429.69385																												-473.71405	518.53918	2300.27368	-153.96544	490.10385	2448.21069							
162	1.610																-81.67515	1310.51392	2430.42407																												-475.16006	517.72174	2302.69360	-153.90469	490.44836	2447.50781							
163	1.620																-81.83191	1310.55798	2431.46387																												-475.70947	516.74292	2305.64648	-153.92348	490.55045	2447.57251							
164	1.630																-81.77017	1310.10669	2432.20239																												-476.60327	516.13922	2310.63623	-153.75928	490.58987	2447.31445							
165	1.640																-82.28918	1310.35986	2433.43042																												-477.43604	515.46136	2312.29590	-153.63678	490.52689	2447.15405							
166	1.650																-82.26212	1310.06628	2433.53979																												-478.25980	515.20459	2314.73706	-153.71663	490.52682	2447.19897							
167	1.660																-82.42438	1310.12573	2433.73242																												-479.72226	514.27234	2317.26807	-153.74310	490.56522	2446.97412							
168	1.670																-82.71745	1310.11633	2434.07886																												-480.98950	513.79596	2318.76465	-153.74835	490.64056	2446.49243							
169	1.680																-82.93483	1310.04346	2434.12134																												-482.22723	513.05676	2320.85620	-153.85284	490.66449	2446.29956							
170	1.690																-83.15709	1310.06799	2433.97046																												-483.21259	512.51379	2322.51147	-154.01137	490.55447	2446.33032							
171	1.700																-83.28402	1309.88452	2433.62061																												-484.15802	512.78894	2324.73267	-154.77419	490.50653	2445.47974							
172	1.710																-83.44251	1309.69226	2433.16846																												-485.78949	512.68878	2327.22778	-154.93520	490.42288	2445.52588							
173	1.720																-83.58098	1309.51929	2432.77539																												-486.56668	511.69962	2330.26147	-155.41582	490.07916	2444.43115							
174	1.730																-83.75829	1309.31360	2432.26563																												-487.45313	511.24866	2333.54956	-155.61557	489.43484	2443.38037							
175	1.740																-83.80182	1309.19348	2431.62915																												-488.33398	510.87250	2335.12256	-155.78651	489.29117	2443.40015							
176	1.750																-84.07245	1308.90784	2430.83936																												-488.80966	510.52496	2336.10889	-156.56061	489.60730	2442.67700							
177	1.760																-84.34521	1308.86511	2429.42993																												-489.14081	510.36389	2336.60352	-156.63936	489.59970	2442.51758							
178	1.770																-84.91310	1308.69238	2428.11572																												-490.25916	510.97400	2335.98682	-156.76328	489.50229	2442.42773							
179	1.780																-85.15993	1308.49646	2426.58740																												-490.88904	510.98553	2336.58618	-157.71141	489.63748	2440.65894							
180	1.790																-85.53434	1308.29773	2425.29883																												-492.28210	512.33191	2334.24658	-157.74692	489.73917	2440.07764							
181	1.800																-86.04108	1308.12756	2423.95654																												-493.01627	512.51959	2333.99878	-158.40959	489.63501	2438.38794							
182	1.810																-86.44235	1307.35779	2421.64282																												-493.64093	512.78113	2333.76318	-158.70499	489.44131	2438.45093							
183	1.820																-86.70985	1306.72961	2419.73975																												-494.37344	512.89630	2333.63892	-159.16359	489.32272	2438.10596							
184	1.830																-87.22111	1306.48523	2417.25903																												-494.97394	513.01746	2333.26099	-159.42621	489.13861	2437.93408							
185	1.840																-87.54903	1305.92493	2414.34058																												-495.68030	513.50580	2332.51343	-160.90240	488.52277	2434.70850							
186	1.850																-88.19975	1305.39539	2412.22412																												-496.66013	513.98853	2330.73730	-161.70537	488.31430	2434.10132							
187	1.860																-88.38767	1304.40137	2408.74365																												-497.89679	514.41547	2329.23340	-162.26489	487.86856	2432.91650							
188	1.870																-89.10153	1304.34021	2405.85400																												-499.31732	515.09674	2326.88989	-162.79073	487.38715	2431.76318							
189	1.880																-89.86469	1303.65747	2402.84131																												-500.54382	515.65552	2324.90942	-163.90999	487.08224	2430.28174							
190	1.890																-90.63230	1303.01624	2399.91577																												-501.43600	515.97852	2323.31421	-165.37933	486.44894	2427.70044							
191	1.900																-91.60419	1302.56848	2396.79126																												-502.61871	516.82983	2320.43018	-166.22302	486.25876	2427.89209							
192	1.910																-92.11134	1301.91736	2392.95557																												-504.04184	517.67859	2317.43774	-167.17447	485.75339	2426.36768							
193	1.920																-93.34168	1301.33569	2390.33667																												-505.26437	518.05133	2315.70923	-168.73332	486.09879	2423.49072							
194	1.930																-94.27563	1301.29810	2386.46680																												-506.19443	519.27582	2312.16162	-169.09865	486.05472	2422.57690							
195	1.940																-95.10549	1300.25952	2382.40039																												-507.01517	519.87817	2309.95898	-170.17047	485.44919	2420.00830							
196	1.950																-96.27578	1300.06067	2378.59229																												-508.46960	520.81732	2307.34082	-170.70616	484.69733	2419.38110							
197	1.960																-97.12817	1299.58875	2374.70435																												-509.94461	522.14886	2304.01611	-172.48026	484.38980	2416.61914							
198	1.970																-98.44398	1299.13635	2370.50977																												-511.03247	522.81659	2302.50098	-172.83740	483.74634	2415.78833							
199	1.980																-99.31320	1298.66492	2366.56152																												-511.78989	524.15997	2298.56958	-174.06195	484.14630	2414.22290							
200	1.990																-100.65846	1298.91870	2362.44922																												-512.47675	525.04303	2296.84863	-175.39136	483.70325	2411.49658							
201	2.000																-101.86574	1298.37903	2357.96875																												-513.58734	525.64441	2294.38623	-176.29021	483.52844	2410.94360							
